<?xml version="1.0" encoding="UTF-8"?>
<!DOCTYPE svg PUBLIC "-//W3C//DTD SVG 1.1//EN" "http://www.w3.org/Graphics/SVG/1.1/DTD/svg11.dtd">
<!-- Creator: CorelDRAW 2020 (64-Bit) -->
<svg xmlns="http://www.w3.org/2000/svg" xml:space="preserve" width="210mm" height="148mm" version="1.1" style="shape-rendering:geometricPrecision; text-rendering:geometricPrecision; image-rendering:optimizeQuality; fill-rule:evenodd; clip-rule:evenodd"
viewBox="0 0 21000 14800"
 xmlns:xlink="http://www.w3.org/1999/xlink"
 xmlns:xodm="http://www.corel.com/coreldraw/odm/2003">
 <defs>
  <style type="text/css">
   <![CDATA[
    .fil1 {fill:#0D0D0D}
    .fil2 {fill:#2A2A2A}
    .fil0 {fill:white}
    .fil3 {fill:#2B2A29;fill-rule:nonzero}
   ]]>
  </style>
 </defs>
 <g id="Layer_x0020_1">
  <metadata id="CorelCorpID_0Corel-Layer"/>
  <g id="_1597480430976">
   <g>
    <polygon class="fil0" points="3522.92,871.97 18370.98,871.97 18370.98,14620.17 3522.92,14620.17 "/>
    <path class="fil1" d="M10046.4 2043.94c0,917.52 -73.19,748.83 275.89,1094.97 309.47,306.84 157.21,272.73 791.43,272.73 264.62,0 246.19,42.6 394,-102.17 216.52,-212.05 69.23,-76.44 361.86,-89.86 264.22,-12.13 492,-300.68 339.73,-600 -119.21,-234.32 -461.93,-302.49 -666.99,-109.44 -117.88,110.98 -126.18,208.09 -109.85,393.17 10.33,117.09 47.97,76.65 -32.64,184.32 -106.15,141.74 -274.59,90.78 -627.72,90.78 -103.32,0 -407.8,-293.74 -454.79,-374.23 -70.1,-120.08 -59.58,-645.79 -18.51,-815.74 809.42,5.98 1223.66,-8.98 1881.67,316.7 532.33,263.48 882.05,595.96 1152.24,1084.93l-358.94 21.41c-65.02,-76.21 -362.22,-540.15 -714.55,-183.96 -88.83,89.82 -158.3,245.24 -105.83,430.78 49.4,174.73 156.49,195.59 277.41,279.7l0.04 1057.03c-318.46,33.78 -713.12,-38.87 -988.64,39.05 -46.47,299.41 -25.17,422.42 -24.75,749.88l-208.79 -1.62 -17.17 -588.01c0,-352.85 -324.26,-312.51 -417.37,-569.36l-1.2 -737.72c405.07,0 459.38,-45.91 624.39,168.37 -229.52,737.69 887.32,816 790.8,115.59 -61.92,-449.34 -567.53,-322.77 -582.83,-324.41 -300.59,-32.13 171.14,-206.68 -757.27,-206.68 -418.51,0 -318.08,-22.93 -326.04,834.96 -5.12,552.04 232.29,354.8 413.66,681.29l1.47 607.28c-235.4,68.92 -412.33,-57.49 -603.59,93.09l-685.55 680.81c-266.23,262.23 -254.05,161.62 -254.16,668.49l-0.29 602.16c-168.94,91.12 -324.01,166.66 -296.78,459.6 18.47,198.45 195.73,368.24 419.82,365.17 462.61,-6.34 588.89,-607.94 115.28,-807.92 0,-224.85 -61.43,-795.68 45.47,-955.47 50.62,-75.65 401.8,-397.8 495.83,-490.35 224.91,-221.34 219.12,-356.29 635.85,-351.51l1709.13 1.19c209.02,0 212.78,18.65 301.57,-155.93 50.61,-99.53 98.7,-205.06 149.73,-305.86 191.45,-378.09 168.83,-290.86 177.23,-769.09l519.18 -20.85c13.7,1196.69 -356.85,398.66 5.95,1350.32 107.24,281.27 285.5,692.35 354.63,967.63 -759.38,83 -677.18,-149.13 -504.22,566.39 -199.34,164.98 -535.15,-6 -158.25,531.4 -81.18,107.83 -141.85,65.62 -178.21,206.36 -50.16,194.13 282.79,1244.32 -1601.04,347.52 -1819.89,-866.35 -817.53,-1692.98 -1379.91,-1651.35l-43.26 262.42c0,1269.44 1849.87,1972.5 2622.29,1972.5 567.79,0 621.67,-342.46 641.99,-875.35 356.7,-172.43 217.21,-238.41 88.49,-489.84 94.74,-69.15 193.4,-75.97 289.06,-147.93 -3.63,-182.43 -71.15,-286.74 -116.38,-465.47 849.51,-1.15 654.76,-160.43 141.76,-1494.16 -150.51,-391.33 79.44,-329.12 79.44,-625.34l0 -493.43c0,-1902.97 -1495.03,-3005.13 -3249.81,-2998.93 -119.68,0.43 -352.71,-13.29 -457.85,-0.43 -196.87,24.08 -154.11,86.76 -154.11,304.42z"/>
    <path class="fil1" d="M7356.69 2575.34c28.81,271.25 -67.1,953.15 59.61,1115.79 39.42,50.59 593.38,478.74 659.93,514.01 0.85,294.14 -67.08,1247.03 90.6,1429.85 97.31,112.83 268.07,237.42 274.89,467.52 7.66,258.68 -3.06,538.04 -4.09,799.9 -141.5,129.54 -306.93,160.64 -294.34,455.41 9.56,223.33 198.56,390.51 428.02,386.22 368.43,-6.9 577.95,-493.3 220.48,-758.3 -130.45,-96.71 -59.25,30.38 -112.15,-121.28 0,-254.08 49.96,-876.1 -44.51,-1051.84 -210.08,-390.78 -310.22,-45.4 -310.8,-769.85 -0.61,-726.16 -6.99,-1455.75 1.03,-2181.76l582.59 311.33 -2.15 238.15c-154.48,121.93 -311.38,174.3 -286.69,446.76 45.81,505.63 755.17,487.37 822.23,40.18 51.87,-345.88 -144.96,-380.52 -284.52,-495.47l-10.59 -369.17c-214.97,-109.03 -796.53,-515.82 -1030.48,-493.53 -84.71,236.9 -23.95,1019.51 -45.44,1356.6 -101.37,-66.58 -423.32,-300.6 -453.74,-413.56 -29.99,-111.38 -9.87,-708.55 -9.87,-869 105.39,-180.14 313.65,-190.07 292.13,-492.8 -15.65,-219.97 -181.87,-364.16 -394.66,-373.81 -361.64,-16.41 -700.88,451.87 -147.48,828.65z"/>
    <path class="fil1" d="M6550.32 10451.94c-225.2,87.77 -169.17,348.57 -168.61,625.69 1.97,974.85 -119.35,1144.73 441.49,1142.17 1038.62,-4.73 1026.6,260.62 977.12,-1448.11 -9.26,-319.28 -122.49,-344.2 -442.91,-342.72 -188.91,0.86 -666.64,-31.77 -807.09,22.97z"/>
    <path class="fil1" d="M13586.52 10460.53c-238.45,123.01 -169.17,367.76 -168.71,655.08 1.48,903.12 -131.92,1108.38 504.02,1103.64 176.67,-1.32 633.94,29.18 769.22,-31.69 211.93,-95.39 154.08,-423.89 153.71,-654.41 -1.47,-900.31 132.25,-1108.38 -504.02,-1103.63 -180.69,1.34 -624.15,-36.09 -754.22,31.01z"/>
    <path class="fil1" d="M4601.56 12218.4c309.01,0 626.83,7.53 934.59,1.36 619.11,-12.41 485.27,-420.65 485.27,-1331.89 0,-601.65 -532.92,-457.49 -1419.68,-457.49l-0.18 1788.02z"/>
    <path class="fil1" d="M11657.76 12202.32l1086.92 16.08c377.45,-0.65 330.15,-215.03 330.15,-571.39 0,-155.66 -43.41,-204.44 -129.19,-303.65 164.9,-146.03 129.19,-272.62 129.19,-569.35 0,-370.79 -171.28,-346.59 -518.38,-344.19 -256.72,1.75 -662.49,-24.3 -898.69,16.62l0 1755.88z"/>
    <path class="fil1" d="M9567.01 2271.69c0,487.56 -71.73,799.73 126.3,1002.72 521.07,534.17 353.09,187.41 353.09,1692.21 0,312.28 73.84,420.92 -335.06,758.86 -198.85,164.34 -355.33,364.49 -552.5,514.19l-4.69 -808.19c149.07,-113.75 317.83,-142.48 290.96,-461.91 -40.22,-478.12 -747.6,-508.47 -822.7,-24.54 -45.14,290.91 119.71,351.97 277.95,477.06l28.15 1232.01c210.68,53.11 286.13,-106.37 546.15,-365.84l705.79 -698.59c133.9,-137.05 103.77,-145.44 100.96,-394.19l-1.18 -1443.47c0,-467.41 -307.3,-391.07 -436.14,-667.58 -112.77,-242.05 66.04,-774.14 -91.51,-1040.18l-125.43 -0.89c-52.83,89.47 -60.14,83.93 -60.14,228.33z"/>
    <path class="fil0" d="M12673.85 3979.74c0,996.89 135.87,1243.45 -229.14,1272.82l-778.06 1.61 -10.64 525.19 923.04 5.05c82.88,-125.54 185.08,-342.44 260.9,-497.23 129.66,-264.74 7.91,-493.26 90.23,-700.13 178.29,-99.52 510.18,-45.14 725.55,-44.82 -6.7,-355.99 -99.27,-593.32 -194.46,-896.93 -640.59,-2.36 -427.43,-30.21 -614.89,168.51 -101.12,107.21 -115.21,55.47 -172.53,165.93z"/>
    <path class="fil2" d="M7293.03 5308.23l5.94 759.14c-147.86,154.83 -303.22,147.55 -289.86,453.52 23.92,548.21 778.6,510.98 835.3,31.95 39.8,-336.4 -165.89,-351.18 -292.6,-485.47l-0.48 -759.14c489.78,-275.73 313.83,-828.7 -120.81,-836.81 -225.52,-4.2 -387.1,145.9 -416.38,349.95 -46.95,327.29 124.08,364.61 278.89,486.86z"/>
    <path class="fil0" d="M13650.74 10887.87c0,1302.74 -176.94,1095.76 765.22,1095.76 299.21,0 195.86,-292.34 195.86,-1095.76 0,-291.19 -72.07,-222.74 -765.21,-222.74 -185.13,0 -195.87,39.59 -195.87,222.74z"/>
    <path class="fil0" d="M6634.82 10705.82c-40.47,128.06 -40.47,1109.06 0,1237.13 124.46,72.22 786.49,72.22 910.96,0 39.43,-124.83 33.21,-919.74 25.02,-1096.1 -11.42,-245.6 -131.19,-185.51 -365.54,-182.77 -184.03,2.15 -426.46,-31.94 -570.44,41.74z"/>
    <path class="fil0" d="M4834.53 11965.85c129.48,27.94 640.07,38.7 766.87,9.39 250.01,-57.78 187.33,-386.05 187.16,-631.86 -0.16,-228.69 67.92,-586.75 -157.74,-661.91 -122.4,-40.77 -662.04,-27.52 -795.16,1.46l-1.13 1282.92z"/>
    <path class="fil1" d="M10240.71 12218.4c1289.55,0 1056.7,248.45 1056.7,-1776.95l-232.78 -13.58 -1.96 1539.83c-225.81,20.26 -769.43,70.98 -935.83,-29.67l-17.7 -1507.65 -231.57 0c0,354.92 0.26,709.88 -0.02,1064.81 -0.31,407.03 -99.44,723.21 363.16,723.21z"/>
    <path class="fil1" d="M9568.73 11796.82c-350.29,1 -156.09,-22.77 -285.67,176.99 -1058.7,106.31 -908.46,12.73 -908.31,-630.45 0.12,-640.25 -175.69,-795.19 906.74,-666.83 128.54,185.67 -40.58,174.48 287.24,175.43 -1.64,-580.5 -404.48,-418.63 -922.84,-422.4 -660.12,-4.82 -504.05,272.88 -504.05,875.85 0.02,566 -161.49,917.81 465.58,914.22 693.34,-3.96 959.79,118.48 961.31,-422.81z"/>
    <polygon class="fil1" points="15049.99,10665.13 15645.92,10670.32 15647.08,12218.4 15879.97,12218.4 15880.02,10682.93 16476.83,10662.72 16476.86,10430.38 15051.74,10430.38 "/>
    <path class="fil0" d="M11889.37 11211.7c184.19,26.85 763.73,54.85 883.05,-25.93 149.22,-116.2 49.4,-479.27 49.36,-479.32 -150.81,-86.73 -724.81,-58.81 -931.13,-28.51l-1.28 533.76z"/>
    <path class="fil0" d="M11889.6 11970.84l742.4 12.79c126.11,-0.26 255.95,47.09 214.24,-334.31 -14.38,-131.38 9.19,-79.72 -61.8,-156.62 -147.25,-74.26 -694.2,-51.38 -895.36,-19.24l0.52 497.38z"/>
   </g>
   <path class="fil3" d="M4840.63 13374.6l121.55 -421.01 86.02 0 121.55 421.01 -62.24 0 -99.69 -370 -5.37 0 -99.58 370 -62.24 0zm56.27 -102.61l0 -56.28 213.54 0 0 56.28 -213.54 0zm433.26 108.58c-33,0 -58.5,-9.91 -76.62,-29.55 -18.11,-19.64 -27.12,-47.36 -27.12,-83.19l0 -207.46 62.84 0 0 207.46c0,18.01 5.16,31.88 15.39,41.69 10.32,9.83 24.69,14.68 43.31,14.68 22.87,0 40.17,-7.29 51.92,-21.76 11.63,-14.58 17.4,-38.96 17.4,-73.17l16.09 84.82 -20.74 0c-4.96,21.35 -14.67,37.75 -29.14,49.28 -14.38,11.43 -32.19,17.2 -53.33,17.2zm92.48 -3.03l-5.36 -75.3 0 -55.16 62.96 0 0 70.55 43.21 6.57 0 50.4 -100.81 2.94zm-5.36 -91.9l0 -225.27 62.96 0 0 207.46 -62.96 17.81zm356.45 94.93c-47.57,0 -82.08,-9.91 -103.34,-29.65 -21.26,-19.84 -31.87,-51.41 -31.87,-94.93l0 -53.33 62.84 0 0 50.39c0,24.9 6.17,43.02 18.32,54.25 12.15,11.23 32.19,16.9 60.01,16.9 9.91,0 20.34,-0.5 31.37,-1.62 11.13,-1.11 23.78,-2.53 37.96,-4.35l7.18 55.15c-13.87,2.44 -27.32,4.16 -40.48,5.37 -13.15,1.22 -27.12,1.82 -41.99,1.82zm-135.21 -154.23l0 -260.9 62.84 0 0 260.9 -62.84 0zm-78.85 -114.46l0 -51.51 284.68 0 0 51.51 -284.68 0zm513.01 268.69c-43.52,0 -77.33,-14.27 -101.41,-42.7 -24.08,-28.55 -36.23,-68.62 -36.23,-120.43 0,-51.93 12.15,-92.11 36.23,-120.54 24.08,-28.34 57.89,-42.51 101.41,-42.51 43.61,0 77.52,14.17 101.5,42.51 24.08,28.43 36.03,68.61 36.03,120.54 0,51.81 -11.95,91.88 -36.03,120.43 -23.98,28.43 -57.89,42.7 -101.5,42.7zm0 -56.37c23.07,0 40.98,-9.31 53.53,-27.83 12.55,-18.62 18.82,-44.94 18.82,-78.93 0,-34.21 -6.27,-60.52 -18.82,-78.94 -12.55,-18.53 -30.46,-27.74 -53.53,-27.74 -23.18,0 -40.99,9.21 -53.54,27.74 -12.56,18.42 -18.82,44.73 -18.82,78.94 0,33.99 6.26,60.31 18.82,78.93 12.55,18.52 30.36,27.83 53.54,27.83zm437.59 50.4l0 -240.16c0,-21.76 -8.09,-32.59 -24.28,-32.59 -20.55,0 -30.87,14.17 -30.87,42.72l-21.25 -45.14 24.29 0c1,-12.25 5.86,-22.76 14.67,-31.67 8.81,-8.91 21.46,-13.37 38.06,-13.37 21.76,0 37.53,5.88 47.46,17.51 9.91,11.64 14.77,30.57 14.87,56.58l0 246.12 -62.95 0zm-226.49 0l0 -314.23 55.77 0 7.08 66.38 0 247.85 -62.85 0zm118.01 0l0 -246.12c0,-17.72 -8.31,-26.63 -24.9,-26.63 -20.14,0 -30.26,14.17 -30.26,42.72l-18.31 -45.14 20.14 0c2.32,-30.05 20.34,-45.04 53.93,-45.04 16.39,0 29.35,5.68 38.66,16.91 9.42,11.23 14.07,28.33 14.07,51.31l0 251.99 -53.33 0zm447.11 2.94l-4.15 -93.1 -8.3 -26.02 0 -81.26c0,-20.96 -7.29,-36.33 -22.06,-46.16 -14.68,-9.71 -36.64,-15.08 -65.68,-15.78l-75.29 -2.12 5.96 -55.77 63.46 0.92c51.91,0.8 90.57,12.03 115.77,33.69 25.2,21.56 37.75,53.13 37.75,94.73l0 130.96 53.43 6.57 0 50.4 -100.89 2.94zm-110.82 3.03c-32.79,0 -58.19,-7.99 -76.21,-23.78 -18,-15.78 -27.01,-38.16 -27.01,-67 0,-33.2 12.44,-58.7 37.24,-76.5 24.8,-17.81 59.81,-26.62 105.15,-26.62 18.72,0 35.52,1.12 50.19,3.34 14.78,2.32 27.83,5.67 39.28,10.21l-13.06 42.72c-13.17,-2.94 -26.12,-4.66 -38.77,-5.16 -12.65,-0.51 -25.6,-0.71 -38.86,-0.71 -54.55,0 -81.87,16.6 -81.87,49.79 0,13.86 4.76,24.49 14.07,31.97 9.41,7.5 22.66,11.35 39.88,11.35 19.62,0 35.91,-3.44 49.08,-10.13 13.15,-6.68 22.96,-15.27 29.55,-25.8 6.47,-10.43 9.71,-21.26 9.71,-32.29l0 -34.41 18.42 80.67 -24.89 0 10.11 -9.53c0,18.22 -4.24,33.41 -12.65,45.55 -8.39,12.15 -20.24,21.25 -35.41,27.22 -15.19,6.08 -33.2,9.11 -53.95,9.11zm458.96 0c-47.56,0 -82.08,-9.91 -103.33,-29.65 -21.26,-19.84 -31.87,-51.41 -31.87,-94.93l0 -53.33 62.84 0 0 50.39c0,24.9 6.16,43.02 18.31,54.25 12.15,11.23 32.19,16.9 60.02,16.9 9.91,0 20.34,-0.5 31.37,-1.62 11.13,-1.11 23.78,-2.53 37.95,-4.35l7.19 55.15c-13.87,2.44 -27.33,4.16 -40.48,5.37 -13.15,1.22 -27.12,1.82 -42,1.82zm-135.2 -154.23l0 -260.9 62.84 0 0 260.9 -62.84 0zm-78.85 -114.46l0 -51.51 284.68 0 0 51.51 -284.68 0zm543.26 268.69c-53.63,0 -94.93,-14.16 -124.08,-42.3 -29.24,-28.13 -43.82,-68.62 -43.82,-121.45 0,-51.31 12.45,-91.29 37.14,-119.71 24.7,-28.45 59.61,-42.72 104.65,-42.72 42.5,0 75.29,12.85 98.57,38.57 23.18,25.7 34.81,63.04 34.81,112.03 0,14.47 -0.6,27.92 -1.72,40.37l-220.62 0 0 -48.06 165.47 0c0,-28.25 -6.78,-50.01 -20.24,-65.08 -13.37,-15.08 -31.98,-22.66 -55.67,-22.66 -26.7,0 -47.46,9.1 -62.13,27.22 -14.78,18.22 -22.07,43.92 -22.07,77.11 0,36.34 10.13,64.06 30.37,82.98 20.24,19.04 49.09,28.55 86.42,28.55 13.06,0 25.91,-0.81 38.56,-2.23 12.65,-1.52 25.5,-3.54 38.56,-6.08l7.7 55.17c-18.63,3.54 -35.63,5.76 -51.01,6.77 -15.39,1.02 -29.04,1.52 -40.89,1.52zm651.74 85.92l0 -604.78 59.31 0 0 604.78 -59.31 0zm711.36 -91.89l0 -421.01 59.31 0 0 421.01 -59.31 0zm-98.17 0l0 -56.37 256.15 0 0 56.37 -256.15 0zm0 -364.73l0 -56.28 256.15 0 0 56.28 -256.15 0zm549.12 364.73l0 -204.53c0,-19.03 -4.84,-33.71 -14.77,-43.92 -9.91,-10.33 -23.78,-15.39 -41.5,-15.39 -49.48,0 -74.17,29.05 -74.17,87.14l-18.32 -80.66 24.29 0c1.72,-21.15 9.51,-36.93 23.08,-47.26 13.65,-10.43 33.59,-15.59 59.91,-15.59 33.19,0 58.9,10.13 77.11,30.26 18.22,20.14 27.23,48.59 27.23,85.42l0 204.53 -62.86 0zm-193.29 0l0 -314.23 56.98 0 5.87 66.38 0 247.85 -62.85 0zm549.12 0l0 -204.53c0,-19.03 -4.85,-33.71 -14.77,-43.92 -9.91,-10.33 -23.78,-15.39 -41.5,-15.39 -49.49,0 -74.17,29.05 -74.17,87.14l-18.32 -80.66 24.29 0c1.72,-21.15 9.51,-36.93 23.08,-47.26 13.65,-10.43 33.59,-15.59 59.91,-15.59 33.19,0 58.9,10.13 77.11,30.26 18.22,20.14 27.23,48.59 27.23,85.42l0 204.53 -62.86 0zm-193.3 0l0 -314.23 56.99 0 5.87 66.38 0 247.85 -62.86 0zm483.97 5.97c-43.52,0 -77.33,-14.27 -101.41,-42.7 -24.09,-28.55 -36.24,-68.62 -36.24,-120.43 0,-51.93 12.15,-92.11 36.24,-120.54 24.08,-28.34 57.89,-42.51 101.41,-42.51 43.6,0 77.51,14.17 101.49,42.51 24.09,28.43 36.04,68.61 36.04,120.54 0,51.81 -11.95,91.88 -36.04,120.43 -23.98,28.43 -57.89,42.7 -101.49,42.7zm0 -56.37c23.06,0 40.98,-9.31 53.53,-27.83 12.55,-18.62 18.82,-44.94 18.82,-78.93 0,-34.21 -6.27,-60.52 -18.82,-78.94 -12.55,-18.53 -30.47,-27.74 -53.53,-27.74 -23.18,0 -41,9.21 -53.55,27.74 -12.55,18.42 -18.82,44.73 -18.82,78.94 0,33.99 6.27,60.31 18.82,78.93 12.55,18.52 30.37,27.83 53.55,27.83zm314.03 50.4l-112.44 -314.23 67 0 84.5 260.9 5.36 0 84.5 -260.9 67 0 -112.34 314.23 -83.58 0zm462.19 2.94l-4.15 -93.1 -8.3 -26.02 0 -81.26c0,-20.96 -7.29,-36.33 -22.07,-46.16 -14.67,-9.71 -36.63,-15.08 -65.68,-15.78l-75.29 -2.12 5.97 -55.77 63.46 0.92c51.91,0.8 90.56,12.03 115.77,33.69 25.2,21.56 37.75,53.13 37.75,94.73l0 130.96 53.43 6.57 0 50.4 -100.89 2.94zm-110.82 3.03c-32.79,0 -58.2,-7.99 -76.21,-23.78 -18.01,-15.78 -27.01,-38.16 -27.01,-67 0,-33.2 12.43,-58.7 37.23,-76.5 24.8,-17.81 59.82,-26.62 105.16,-26.62 18.72,0 35.51,1.12 50.19,3.34 14.77,2.32 27.82,5.67 39.27,10.21l-13.05 42.72c-13.17,-2.94 -26.12,-4.66 -38.77,-5.16 -12.65,-0.51 -25.61,-0.71 -38.86,-0.71 -54.55,0 -81.88,16.6 -81.88,49.79 0,13.86 4.77,24.49 14.08,31.97 9.41,7.5 22.66,11.35 39.87,11.35 19.62,0 35.92,-3.44 49.09,-10.13 13.15,-6.68 22.96,-15.27 29.54,-25.8 6.47,-10.43 9.72,-21.26 9.72,-32.29l0 -34.41 18.41 80.67 -24.88 0 10.11 -9.53c0,18.22 -4.25,33.41 -12.65,45.55 -8.39,12.15 -20.24,21.25 -35.42,27.22 -15.19,6.08 -33.19,9.11 -53.94,9.11zm458.96 0c-47.57,0 -82.08,-9.91 -103.34,-29.65 -21.25,-19.84 -31.87,-51.41 -31.87,-94.93l0 -53.33 62.84 0 0 50.39c0,24.9 6.17,43.02 18.32,54.25 12.15,11.23 32.19,16.9 60.01,16.9 9.92,0 20.34,-0.5 31.37,-1.62 11.13,-1.11 23.79,-2.53 37.96,-4.35l7.18 55.15c-13.87,2.44 -27.32,4.16 -40.47,5.37 -13.16,1.22 -27.13,1.82 -42,1.82zm-135.21 -154.23l0 -260.9 62.84 0 0 260.9 -62.84 0zm-78.85 -114.46l0 -51.51 284.69 0 0 51.51 -284.69 0zm543.26 268.69c-53.63,0 -94.92,-14.16 -124.07,-42.3 -29.25,-28.13 -43.82,-68.62 -43.82,-121.45 0,-51.31 12.45,-91.29 37.13,-119.71 24.7,-28.45 59.62,-42.72 104.66,-42.72 42.5,0 75.29,12.85 98.57,38.57 23.18,25.7 34.81,63.04 34.81,112.03 0,14.47 -0.6,27.92 -1.72,40.37l-220.62 0 0 -48.06 165.47 0c0,-28.25 -6.79,-50.01 -20.24,-65.08 -13.37,-15.08 -31.99,-22.66 -55.67,-22.66 -26.71,0 -47.46,9.1 -62.14,27.22 -14.77,18.22 -22.06,43.92 -22.06,77.11 0,36.34 10.13,64.06 30.37,82.98 20.24,19.04 49.08,28.55 86.42,28.55 13.05,0 25.9,-0.81 38.56,-2.23 12.65,-1.52 25.5,-3.54 38.55,-6.08l7.7 55.17c-18.63,3.54 -35.63,5.76 -51,6.77 -15.39,1.02 -29.05,1.52 -40.9,1.52zm651.75 85.92l0 -604.78 59.31 0 0 604.78 -59.31 0zm576.75 -91.89l121.55 -421.01 86.02 0 121.55 421.01 -62.24 0 -99.69 -370 -5.36 0 -99.59 370 -62.24 0zm56.27 -102.61l0 -56.28 213.54 0 0 56.28 -213.54 0zm494.38 108.58c-53.63,0 -94.93,-14.16 -124.08,-42.3 -29.24,-28.13 -43.82,-68.62 -43.82,-121.45 0,-51.31 13.87,-91.29 41.4,-119.71 27.62,-28.45 67,-42.72 118.21,-42.72 30.55,0 56.87,5.68 78.63,17.01 21.86,11.43 37.44,27.43 46.75,48.17l-48.37 36.53c-8.91,-14.47 -20.24,-25.6 -34.11,-33.49 -13.76,-7.9 -28.95,-11.85 -45.34,-11.85 -29.65,0 -52.63,8.91 -69.03,26.82 -16.49,17.82 -24.68,43.32 -24.68,76.31 0,35.83 9.71,63.14 28.95,81.98 19.22,18.92 46.74,28.33 82.57,28.33 14.58,0 29.25,-0.71 43.92,-2.13 14.58,-1.32 28.85,-3.24 42.62,-5.56l7.17 55.15c-16.18,3.54 -32.99,5.88 -50.29,7.09 -17.31,1.22 -34.11,1.82 -50.5,1.82zm355.83 0c-53.64,0 -94.93,-14.16 -124.08,-42.3 -29.25,-28.13 -43.82,-68.62 -43.82,-121.45 0,-51.31 13.87,-91.29 41.4,-119.71 27.62,-28.45 67,-42.72 118.2,-42.72 30.56,0 56.88,5.68 78.64,17.01 21.86,11.43 37.44,27.43 46.74,48.17l-48.36 36.53c-8.91,-14.47 -20.24,-25.6 -34.11,-33.49 -13.76,-7.9 -28.95,-11.85 -45.34,-11.85 -29.65,0 -52.63,8.91 -69.03,26.82 -16.49,17.82 -24.68,43.32 -24.68,76.31 0,35.83 9.71,63.14 28.94,81.98 19.22,18.92 46.75,28.33 82.58,28.33 14.57,0 29.25,-0.71 43.92,-2.13 14.58,-1.32 28.85,-3.24 42.62,-5.56l7.17 55.15c-16.18,3.54 -32.99,5.88 -50.29,7.09 -17.31,1.22 -34.11,1.82 -50.5,1.82zm355.82 0c-53.63,0 -94.92,-14.16 -124.07,-42.3 -29.25,-28.13 -43.82,-68.62 -43.82,-121.45 0,-51.31 12.45,-91.29 37.14,-119.71 24.7,-28.45 59.61,-42.72 104.65,-42.72 42.5,0 75.29,12.85 98.57,38.57 23.18,25.7 34.81,63.04 34.81,112.03 0,14.47 -0.6,27.92 -1.72,40.37l-220.62 0 0 -48.06 165.47 0c0,-28.25 -6.79,-50.01 -20.24,-65.08 -13.37,-15.08 -31.99,-22.66 -55.67,-22.66 -26.71,0 -47.46,9.1 -62.14,27.22 -14.77,18.22 -22.06,43.92 -22.06,77.11 0,36.34 10.13,64.06 30.37,82.98 20.24,19.04 49.08,28.55 86.42,28.55 13.05,0 25.91,-0.81 38.56,-2.23 12.65,-1.52 25.5,-3.54 38.55,-6.08l7.71 55.17c-18.64,3.54 -35.63,5.76 -51.01,6.77 -15.39,1.02 -29.05,1.52 -40.9,1.52zm372.43 0c-36.43,0 -62.64,-9.91 -78.94,-29.65 -16.19,-19.84 -24.28,-51.41 -24.28,-94.93l0 -326.18 62.84 0 0 323.24c0,16.6 1.62,30.17 4.76,40.6 3.13,10.51 9.31,18.21 18.52,23.16 9.21,4.96 22.76,7.39 40.78,7.39 16.4,0 37.35,-3.75 62.86,-11.23l7.08 55.15c-15.99,4.36 -31.38,7.5 -46.06,9.42 -14.77,2.02 -30.55,3.03 -47.56,3.03zm-195.72 -399.15l0 -51.61 97.86 0 0 51.61 -97.86 0zm534.95 399.15c-53.63,0 -94.93,-14.16 -124.07,-42.3 -29.25,-28.13 -43.82,-68.62 -43.82,-121.45 0,-51.31 12.45,-91.29 37.13,-119.71 24.7,-28.45 59.62,-42.72 104.66,-42.72 42.5,0 75.29,12.85 98.57,38.57 23.18,25.7 34.81,63.04 34.81,112.03 0,14.47 -0.6,27.92 -1.72,40.37l-220.62 0 0 -48.06 165.47 0c0,-28.25 -6.79,-50.01 -20.24,-65.08 -13.37,-15.08 -31.99,-22.66 -55.67,-22.66 -26.71,0 -47.47,9.1 -62.14,27.22 -14.77,18.22 -22.06,43.92 -22.06,77.11 0,36.34 10.13,64.06 30.37,82.98 20.24,19.04 49.08,28.55 86.42,28.55 13.05,0 25.9,-0.81 38.55,-2.23 12.66,-1.52 25.51,-3.54 38.56,-6.08l7.7 55.17c-18.63,3.54 -35.63,5.76 -51,6.77 -15.39,1.02 -29.05,1.52 -40.9,1.52zm304.22 -141.17l-18.42 -98.47 24.29 0c3.64,-57.7 32.49,-86.54 86.64,-86.54 32.37,0 55.95,9.32 70.52,27.84 14.68,18.62 21.96,48.67 21.96,90.17l-62.23 0c0,-22.97 -3.45,-39.48 -10.22,-49.49 -6.88,-10.13 -17.91,-15.18 -33.1,-15.18 -26.71,0 -46.55,11.44 -59.7,34.3 -13.17,22.78 -19.74,55.27 -19.74,97.37zm-132.88 135.2l0 -51.61 209.99 0 0 51.61 -209.99 0zm70.03 0l0 -314.23 51 0 11.85 90.07 0 224.16 -62.85 0zm-58.08 -262.72l0 -51.51 104.94 0 5.86 51.51 -110.8 0zm562.68 265.66l-4.15 -93.1 -8.3 -26.02 0 -81.26c0,-20.96 -7.29,-36.33 -22.06,-46.16 -14.68,-9.71 -36.64,-15.08 -65.68,-15.78l-75.29 -2.12 5.96 -55.77 63.46 0.92c51.91,0.8 90.57,12.03 115.77,33.69 25.2,21.56 37.75,53.13 37.75,94.73l0 130.96 53.43 6.57 0 50.4 -100.89 2.94zm-110.82 3.03c-32.79,0 -58.19,-7.99 -76.21,-23.78 -18,-15.78 -27.01,-38.16 -27.01,-67 0,-33.2 12.44,-58.7 37.24,-76.5 24.8,-17.81 59.81,-26.62 105.15,-26.62 18.72,0 35.52,1.12 50.19,3.34 14.78,2.32 27.83,5.67 39.28,10.21l-13.06 42.72c-13.17,-2.94 -26.12,-4.66 -38.77,-5.16 -12.65,-0.51 -25.6,-0.71 -38.86,-0.71 -54.55,0 -81.87,16.6 -81.87,49.79 0,13.86 4.76,24.49 14.07,31.97 9.41,7.5 22.66,11.35 39.88,11.35 19.62,0 35.91,-3.44 49.08,-10.13 13.15,-6.68 22.96,-15.27 29.55,-25.8 6.47,-10.43 9.71,-21.26 9.71,-32.29l0 -34.41 18.42 80.67 -24.89 0 10.11 -9.53c0,18.22 -4.24,33.41 -12.65,45.55 -8.39,12.15 -20.24,21.25 -35.41,27.22 -15.19,6.08 -33.2,9.11 -53.95,9.11zm458.96 0c-47.56,0 -82.08,-9.91 -103.33,-29.65 -21.26,-19.84 -31.88,-51.41 -31.88,-94.93l0 -53.33 62.85 0 0 50.39c0,24.9 6.16,43.02 18.31,54.25 12.15,11.23 32.19,16.9 60.02,16.9 9.91,0 20.34,-0.5 31.37,-1.62 11.13,-1.11 23.78,-2.53 37.95,-4.35l7.19 55.15c-13.87,2.44 -27.33,4.16 -40.48,5.37 -13.15,1.22 -27.13,1.82 -42,1.82zm-135.21 -154.23l0 -260.9 62.85 0 0 260.9 -62.85 0zm-78.84 -114.46l0 -51.51 284.68 0 0 51.51 -284.68 0zm543.26 268.69c-53.63,0 -94.93,-14.16 -124.08,-42.3 -29.24,-28.13 -43.82,-68.62 -43.82,-121.45 0,-51.31 12.45,-91.29 37.14,-119.71 24.7,-28.45 59.61,-42.72 104.65,-42.72 42.5,0 75.29,12.85 98.57,38.57 23.18,25.7 34.81,63.04 34.81,112.03 0,14.47 -0.6,27.92 -1.72,40.37l-220.62 0 0 -48.06 165.47 0c0,-28.25 -6.78,-50.01 -20.24,-65.08 -13.37,-15.08 -31.98,-22.66 -55.67,-22.66 -26.7,0 -47.46,9.1 -62.13,27.22 -14.78,18.22 -22.07,43.92 -22.07,77.11 0,36.34 10.13,64.06 30.37,82.98 20.24,19.04 49.09,28.55 86.42,28.55 13.06,0 25.91,-0.81 38.56,-2.23 12.65,-1.52 25.5,-3.54 38.56,-6.08l7.7 55.17c-18.63,3.54 -35.63,5.76 -51.01,6.77 -15.39,1.02 -29.05,1.52 -40.89,1.52z"/>
  </g>
 </g>
</svg>
